<svg xmlns="http://www.w3.org/2000/svg" viewBox="0 0 73.5 98.4"><defs><style>.cls-1{fill:#c8c7c7;}</style></defs><g id="Livello_2" data-name="Livello 2"><g id="Livello_1-2" data-name="Livello 1"><path class="cls-1" d="M36.07,14H38c1.73,0,2.91-.39,3.54-1.16a6.39,6.39,0,0,0,1-4V4.35C42.46,1.45,41,0,38,0h-1.9c-1.73,0-2.91.36-3.54,1.09s-1,2-1,4V8.85a6.39,6.39,0,0,0,1,4C33.16,13.63,34.34,14,36.07,14Z"/><path class="cls-1" d="M37.56,24.91H36.07c-2.91,0-4.36,1.4-4.36,4.22V51H41.78V29.13C41.78,26.31,40.38,24.91,37.56,24.91Z"/><path class="cls-1" d="M31.71,94.18c0,2.82,1.45,4.22,4.36,4.22h1.49c2.82,0,4.22-1.4,4.22-4.22V72.36H31.71Z"/><path class="cls-1" d="M69.28,56.62H4.22Q0,56.62,0,61v1.5q0,4.22,4.22,4.22H69.28q4.22,0,4.22-4.22V61Q73.5,56.62,69.28,56.62Z"/></g></g></svg>