<svg xmlns="http://www.w3.org/2000/svg" viewBox="0 0 434.07 100.72"><defs><style>.cls-1{fill:#fff;}</style></defs><g id="Livello_2" data-name="Livello 2"><g id="Livello_1-2" data-name="Livello 1"><path class="cls-1" d="M49.88,5.58Q42.19,0,29,0,15.52,0,7.76,5.58T0,21.23V79.48q0,21.24,28.58,21.24,13.34,0,21.17-5.58t7.82-15.66V68.32a4.58,4.58,0,0,0-1-3.33,4.58,4.58,0,0,0-3.33-1H51.31q-3.81,0-3.81,4.35v9.12Q47.5,91.6,29,91.6q-9.66,0-14-3.27c-2.9-2.18-4.35-5.8-4.35-10.89V23.27Q10.62,9.13,29,9.12q8.58,0,13.54,3.61t5,10.54v9.12q0,4.36,3.81,4.36h1.91a4.58,4.58,0,0,0,3.33-1,4.59,4.59,0,0,0,1-3.34V21.23Q57.57,11.17,49.88,5.58Z"/><path class="cls-1" d="M101.94,24.5q-8.72,0-17.83,7.89l-.82-4.62a2.61,2.61,0,0,0-1.15-2,8,8,0,0,0-3.34-.47c-1.63,0-2.67.36-3.13,1.08A8.52,8.52,0,0,0,75,30.49V95.14q0,4.22,4.22,4.22h1.5q4.22,0,4.22-4.22V40.56q3-2.31,4.56-3.47a26.38,26.38,0,0,1,4.28-2.45,11.9,11.9,0,0,1,5-1.29q5.85,0,5.85,8v8.16a4.78,4.78,0,0,0,1,3.34c.63.68,1.85,1,3.67,1s3.2-.34,3.88-1a4.38,4.38,0,0,0,1-3.2V40.15Q114.19,24.51,101.94,24.5Z"/><path class="cls-1" d="M168.22,25.86h-.81a6.58,6.58,0,0,0-3.88.88c-.77.6-1.16,1.71-1.16,3.34V80.71c0,2.27,0,4,.14,5.31q-9.81,5.58-16.88,5.58-9.93,0-9.94-12.93V30.08q0-4.21-4.21-4.22h-.82a6.23,6.23,0,0,0-3.81.88c-.73.6-1.09,1.71-1.09,3.34V81.25q0,9.27,4.22,14.36t12.66,5.11q9.93,0,21-6.94,1.35,5.58,4.49,5.58h.68q3.67,0,3.67-3.68V30.08Q172.44,25.87,168.22,25.86Z"/><path class="cls-1" d="M228.56,73.31a5.48,5.48,0,0,0-.18,1.41v3.4q0,6.81-3.81,10.14T214.23,91.6q-14.85,0-14.84-13.48v-31q0-13.47,14.84-13.47,14.15,0,14.15,13.47v4.49c0,.12,0,.21,0,.32H238c0-.11,0-.2,0-.32v-6.8q0-9.66-6.19-15T214.23,24.5q-12,0-18.38,5.24t-6.4,15V80.44q0,9.8,6.4,15t18.38,5.24q11.43,0,17.62-5.31t6.19-15V74.58a5.46,5.46,0,0,0-.15-1.27Z"/><path class="cls-1" d="M258.73,15h1.91c1.72,0,2.9-.38,3.54-1.16a6.44,6.44,0,0,0,.95-4V5.31c0-2.9-1.5-4.36-4.49-4.36h-1.91c-1.72,0-2.9.37-3.54,1.09s-.95,2-.95,4V9.8a6.44,6.44,0,0,0,.95,4C255.83,14.59,257,15,258.73,15Z"/><path class="cls-1" d="M254.38,95.14q0,4.22,4.35,4.22h1.5q4.22,0,4.22-4.22V73.31H254.38Z"/><path class="cls-1" d="M260.23,25.86h-1.5q-4.35,0-4.35,4.22V51.9h10.07V30.08Q264.45,25.87,260.23,25.86Z"/><path class="cls-1" d="M310.86,24.5q-7.49,0-18.1,6V5.58q0-4.21-4.22-4.22h-.82a6.15,6.15,0,0,0-3.81.89c-.73.59-1.09,1.7-1.09,3.33V51.9h9.12c.28,0,.55,0,.82,0V39.33c2.53-1.45,4.33-2.45,5.37-3a31.7,31.7,0,0,1,4.49-1.77,18.76,18.76,0,0,1,5.79-1q6.52,0,9.52,3.06t3,9.87V78.67c0,4.54-1,7.82-3,9.87s-5.17,3.06-9.52,3.06a20.94,20.94,0,0,1-3.41-.27q-3.81-.69-12.24-5.31V73.28c-.27,0-.54,0-.82,0h-9.12V94.46a8,8,0,0,0,.82,4.22,3.34,3.34,0,0,0,3,1.22h2.72a2.27,2.27,0,0,0,2.45-2l.41-1.5a4.87,4.87,0,0,1,.27-1.5q10.62,5.86,18.38,5.86,20,0,20-20.28V44.78Q330.86,24.5,310.86,24.5Z"/><path class="cls-1" d="M433.25,91.94c-.54-.5-1.77-.75-3.67-.75q-4.5,0-6.4-3.4t-1.91-10.48V5.58c0-2.81-1.4-4.22-4.22-4.22h-1.49q-4.37,0-4.36,4.22V78.4q0,11.43,3.68,16.46t11.43,5a16.88,16.88,0,0,0,6-.75q1.77-.75,1.77-3.33v-1A4,4,0,0,0,433.25,91.94Z"/><path class="cls-1" d="M390.64,30.08q-6.52-5.58-18.37-5.58-11.44,0-17.7,5.58t-6.26,15.66V79.49q0,10.07,6.26,15.65t17.7,5.58q11.84,0,18.37-5.17T397.17,81v-2q0-4.08-4.08-4.08h-1.77q-4.08,0-4.08,3.27v.81q0,13.07-15,13.07-7.22,0-10.62-3.54t-3.4-11V66.83h34.57c1.9,0,3.11-.41,3.61-1.22s.74-2.45.74-4.9v-15Q397.17,35.66,390.64,30.08Zm-3.4,28.59h-29V47.78q0-7.62,3.4-11.1t10.62-3.47q15,0,15,14.57Z"/><path class="cls-1" d="M222.66,61.93v1.49c0,2.82,1.41,4.22,4.22,4.22h65.06c2.81,0,4.22-1.4,4.22-4.22V61.93q0-4.36-4.22-4.36H226.88Q222.67,57.57,222.66,61.93Z"/></g></g></svg>