<svg xmlns="http://www.w3.org/2000/svg" viewBox="0 0 207.53 39.32"><defs><style>.cls-1{fill:#fff;}</style></defs><g id="Livello_2" data-name="Livello 2"><g id="Livello_1-2" data-name="Livello 1"><path class="cls-1" d="M.63,30.4V29H2.76c.28,0,.41.08.4.4V30c0,.33-.12.4-.39.4H.63Zm-.63,2H.62V30.91H3c.53,0,.78-.21.78-.75V29.3c0-.54-.24-.76-.78-.76H0Z"/><path class="cls-1" d="M6.13,30.43V29.06H8.26c.27,0,.41.07.4.4V30c0,.32-.13.4-.39.4H6.13Zm-.63,2h.62V30.94h1.1l1.5,1.53h.93L8,30.94H8.5c.54,0,.79-.21.79-.76v-.87c0-.54-.24-.76-.78-.76h-3Z"/><path class="cls-1" d="M11.75,31.94V29.1l3.08,0V32ZM12,28.57c-.66,0-.86.2-.87.93v2.06c0,.72.21.92.87.92h2.59c.66,0,.85-.2.85-.92V29.51c0-.72-.19-.92-.86-.92l-2.57,0h0"/><path class="cls-1" d="M18.34,28.6c-.65,0-.85.2-.86.92v2.06c0,.73.2.93.86.93h2.41c.67,0,.87-.21.87-.92V30.33H19.5v.51H21V32H18.09V29.13H21v.58l.62-.13v-.1c0-.69-.23-.88-.87-.88H18.34"/><polygon class="cls-1" points="23.6 32.53 27.21 32.54 27.21 32.01 24.22 32 24.23 30.75 26.04 30.76 26.04 30.25 24.23 30.24 24.24 29.15 27.2 29.16 27.2 28.64 23.62 28.62 23.6 32.53"/><polygon class="cls-1" points="28.02 29.17 29.72 29.18 29.7 32.56 30.33 32.56 30.34 29.18 32.05 29.19 32.05 28.66 28.02 28.64 28.02 29.17"/><polygon class="cls-1" points="32.81 29.19 34.51 29.2 34.49 32.58 35.12 32.58 35.13 29.2 36.83 29.21 36.84 28.68 32.81 28.66 32.81 29.19"/><path class="cls-1" d="M38.16,31.13l1-2,1,2ZM36.8,32.58h.62l.48-1h2.51l.47,1h.68l-2.05-3.92h-.66Z"/><polygon class="cls-1" points="42.73 29.23 45.24 29.24 42.48 32.34 42.47 32.61 46.22 32.63 46.22 32.08 43.42 32.07 46.23 28.93 46.23 28.72 42.73 28.71 42.73 29.23"/><rect class="cls-1" x="46.43" y="30.37" width="3.91" height="0.62" transform="translate(17.54 78.96) rotate(-89.81)"/><path class="cls-1" d="M51.38,32.1l0-2.83h3.07v2.83Zm.27-3.36c-.66,0-.87.2-.87.92v2.06c0,.73.2.93.86.93h2.58c.67,0,.86-.2.86-.92V29.68c0-.72-.19-.92-.86-.93H51.65"/><path class="cls-1" d="M57.16,32.67h.56v-2.3a8.25,8.25,0,0,0,0-.86,1.84,1.84,0,0,0,.37.45l2.85,2.73h.35V28.78h-.56v2.14a4.68,4.68,0,0,0,0,1,3.74,3.74,0,0,0-.42-.49l-2.77-2.62h-.39Z"/><polygon class="cls-1" points="63.39 32.7 67 32.71 67 32.17 64.01 32.16 64.01 30.92 65.82 30.93 65.82 30.41 64.02 30.4 64.02 29.31 66.98 29.32 66.98 28.8 63.4 28.79 63.39 32.7"/><path class="cls-1" d="M72.38,28.83c-.64,0-.85.2-.85.92V31.8c0,.73.2.93.87.93h2.4c.67,0,.87-.2.87-.92V30.56H73.55v.5h1.5V32.2H72.13V29.35l2.91,0v.57l.62-.12v-.1c0-.69-.22-.88-.87-.88H72.38"/><path class="cls-1" d="M78.27,30.73V29.36h2.13c.27,0,.4.08.4.4v.57c0,.33-.13.4-.41.4Zm-.63,2h.62V31.24h1.09l1.51,1.53h.92L80.1,31.24h.56c.53,0,.77-.21.77-.75v-.87c0-.54-.24-.76-.78-.76h-3Z"/><path class="cls-1" d="M84.08,31.32l1-2,1,2Zm-1.35,1.46h.61l.48-1h2.51l.48,1h.68l-2-3.92h-.66Z"/><polygon class="cls-1" points="88.89 32.8 89.51 32.81 89.52 31.23 91.18 31.24 91.18 30.71 89.52 30.71 89.52 29.43 92.44 29.44 92.44 28.91 88.91 28.89 88.89 32.8"/><polyline class="cls-1" points="94.31 28.92 93.69 28.91 93.67 32.82 94.29 32.83"/><path class="cls-1" d="M97.25,28.93c-.66,0-.86.2-.87.92v2.06c0,.72.19.92.86.93h2.1c.65,0,.85-.19.85-.92v-.46l-.62-.14v1H97V29.46h2.58v.89l.62-.12v-.38c0-.72-.19-.92-.86-.92H97.25"/><path class="cls-1" d="M102.65,31.4l1-2,1,2Zm-1.35,1.45h.61l.48-1h2.51l.47,1h.68L104,29h-.66Z"/><path class="cls-1" d="M113.11,30.86H111V29.49h2.13c.28,0,.41.09.4.41v.55c0,.32-.12.4-.39.4h0m-2.76,2H111V31.37h2.38c.54,0,.79-.21.79-.75v-.87c0-.55-.24-.76-.78-.76l-3,0Z"/><path class="cls-1" d="M116.47,30.89V29.52h2.13c.28,0,.41.07.41.4v.57c0,.33-.13.4-.4.4Zm-.62,2h.62V31.39h1.1l1.51,1.53H120l-1.7-1.53h.56c.53,0,.78-.21.78-.75v-.87c0-.55-.24-.76-.78-.76h-3Z"/><polygon class="cls-1" points="121.53 32.94 125.14 32.95 125.14 32.41 122.15 32.4 122.16 31.16 123.97 31.17 123.97 30.65 122.16 30.65 122.16 29.56 125.12 29.57 125.13 29.05 121.55 29.03 121.53 32.94"/><path class="cls-1" d="M126.81,30v.34c0,.72.2.92.86.92H130v1.17h-2.76v-.63l-.58.14V32c0,.72.2.93.87.93h2.18c.66,0,.85-.2.85-.92v-.44c0-.7-.18-.92-.86-.92h-2.33V29.59H130v.57l.54-.16v-.09c0-.67-.25-.85-.87-.86h-2c-.65,0-.84.2-.85.92"/><polygon class="cls-1" points="131.78 29.6 133.47 29.61 133.46 32.99 134.08 32.99 134.09 29.61 135.8 29.62 135.8 29.09 131.78 29.07 131.78 29.6"/><path class="cls-1" d="M137.13,31.54l1-2,1,2ZM135.77,33h.61l.48-1h2.52l.47,1h.68l-2.05-3.92h-.66Z"/><path class="cls-1" d="M141.93,33h.53V30.39a4.1,4.1,0,0,0,0-.57,1.87,1.87,0,0,0,.25.48l1.47,2.12h.16l1.42-2.17a2.36,2.36,0,0,0,.23-.42q0,.44,0,.57V33h.57v-3.9h-.57l-1.69,2.54-1.8-2.55H142Z"/><path class="cls-1" d="M149.26,31V29.65h2.14c.28,0,.4.09.4.41v.55c0,.32-.12.4-.39.4h-2.14Zm-.63,2h.62V31.53h2.37c.54,0,.79-.21.79-.76v-.86c0-.55-.24-.76-.78-.76l-3,0Z"/><path class="cls-1" d="M154.12,31.61l1-2,1,2Zm-1.35,1.46h.61l.48-1h2.52l.47,1h.68l-2.05-3.92h-.66Z"/><polygon class="cls-1" points="158.93 33.09 159.55 33.09 159.56 31.52 161.22 31.53 161.22 31.01 159.56 31 159.56 29.72 162.48 29.73 162.48 29.2 158.94 29.19 158.93 33.09"/><polygon class="cls-1" points="163.71 33.11 167.15 33.13 167.15 32.58 164.34 32.57 164.35 29.21 163.73 29.21 163.71 33.11"/><polygon class="cls-1" points="168.61 33.13 172.22 33.15 172.22 32.61 169.23 32.6 169.24 31.36 171.05 31.36 171.05 30.85 169.24 30.84 169.25 29.75 172.21 29.77 172.21 29.24 168.63 29.23 168.61 33.13"/><polygon class="cls-1" points="175.17 31.15 173.36 33.15 174.15 33.16 175.52 31.5 176.99 33.17 177.88 33.17 175.9 31.09 177.54 29.26 176.77 29.26 175.53 30.73 174.24 29.25 173.35 29.25 175.17 31.15"/><path class="cls-1" d="M179.66,32.63l0-2.83,3.07,0v2.83Zm.25-3.36c-.65,0-.85.21-.86.92v2.06c0,.73.21.93.88.93h2.58c.66,0,.85-.21.85-.92V30.21c0-.72-.19-.93-.86-.93h-2.58"/><rect class="cls-1" x="200.07" y="30.04" width="1.95" height="1.93"/><polygon class="cls-1" points="201.91 31.68 201.5 32.83 201.08 32.89 201.49 31.73 201.91 31.68"/><polygon class="cls-1" points="201.49 31.73 201.08 32.89 200.97 32.51 201.39 31.35 201.49 31.73"/><polygon class="cls-1" points="202.44 32 202.03 33.15 201.61 33.21 202.02 32.05 202.44 32"/><polygon class="cls-1" points="202.02 32.06 201.61 33.21 201.5 32.83 201.91 31.68 202.02 32.06"/><polygon class="cls-1" points="202.97 32.31 202.56 33.47 202.14 33.53 202.55 32.38 202.97 32.31"/><polygon class="cls-1" points="202.55 32.38 202.13 33.53 202.03 33.15 202.44 32 202.55 32.38"/><polygon class="cls-1" points="203.5 32.63 203.09 33.79 202.67 33.85 203.08 32.7 203.5 32.63"/><polygon class="cls-1" points="203.08 32.7 202.67 33.85 202.56 33.47 202.97 32.32 203.08 32.7"/><polygon class="cls-1" points="204.03 32.95 203.62 34.11 203.2 34.17 203.61 33.02 204.03 32.95"/><polygon class="cls-1" points="203.61 33.02 203.2 34.17 203.09 33.79 203.5 32.63 203.61 33.02"/><polygon class="cls-1" points="204.56 33.28 204.15 34.43 203.73 34.49 204.13 33.34 204.56 33.28"/><polygon class="cls-1" points="204.13 33.34 203.73 34.49 203.62 34.11 204.03 32.95 204.13 33.34"/><polygon class="cls-1" points="205.09 33.6 204.68 34.75 204.25 34.81 204.66 33.65 205.09 33.6"/><polygon class="cls-1" points="204.66 33.65 204.25 34.81 204.15 34.43 204.56 33.28 204.66 33.65"/><polygon class="cls-1" points="205.62 33.91 205.2 35.07 204.78 35.13 205.19 33.98 205.62 33.91"/><polygon class="cls-1" points="205.19 33.98 204.78 35.13 204.68 34.75 205.09 33.6 205.19 33.98"/><polygon class="cls-1" points="206.15 34.23 205.74 35.39 205.31 35.45 205.72 34.29 206.15 34.23"/><polygon class="cls-1" points="205.72 34.29 205.31 35.45 205.2 35.07 205.62 33.91 205.72 34.29"/><polygon class="cls-1" points="206.67 34.56 206.26 35.71 205.84 35.77 206.25 34.62 206.67 34.56"/><polygon class="cls-1" points="206.25 34.62 205.84 35.77 205.74 35.39 206.15 34.23 206.25 34.62"/><polygon class="cls-1" points="201.92 33.26 201.5 34.41 201.08 32.89 201.49 31.73 201.92 33.26"/><polygon class="cls-1" points="206.25 34.62 205.84 35.77 205.42 35.83 205.83 34.68 206.25 34.62"/><polygon class="cls-1" points="201.94 33.36 201.53 34.51 201.5 34.41 201.92 33.26 201.94 33.36"/><polygon class="cls-1" points="205.83 34.68 205.42 35.83 205 35.89 205.41 34.74 205.83 34.68"/><polygon class="cls-1" points="205.41 34.74 205 35.89 204.57 35.95 204.98 34.8 205.41 34.74"/><polygon class="cls-1" points="205.01 34.89 204.6 36.05 204.57 35.95 204.98 34.8 205.01 34.89"/><polygon class="cls-1" points="205.51 35.12 205.1 36.27 206.77 36.03 207.18 34.88 205.51 35.12"/><polygon class="cls-1" points="205.51 35.12 205.1 36.27 206.77 36.03 207.18 34.88 205.51 35.12"/><polygon class="cls-1" points="205.51 35.12 205.1 36.27 206.77 36.03 207.18 34.88 205.51 35.12"/><polygon class="cls-1" points="205.51 35.12 205.1 36.27 206.77 36.03 207.18 34.88 205.51 35.12"/><polygon class="cls-1" points="205.51 35.12 205.1 36.27 205 35.89 205.41 34.74 205.51 35.12"/><polygon class="cls-1" points="204.14 34.92 203.73 36.08 203.3 36.13 203.72 34.98 204.14 34.92"/><polygon class="cls-1" points="205.61 35.45 205.2 36.61 204.77 36.67 205.18 35.52 205.61 35.45"/><polygon class="cls-1" points="205.18 35.52 204.77 36.67 204.6 36.05 205.01 34.89 205.18 35.52"/><polygon class="cls-1" points="205.41 34.74 205.51 35.12 205.61 35.45 205.18 35.52 205.01 34.89 204.98 34.8 205.41 34.74"/><polygon class="cls-1" points="202.31 34.69 201.9 35.84 201.53 34.51 201.94 33.36 202.31 34.69"/><polygon class="cls-1" points="203.82 35.37 203.41 36.52 203.3 36.13 203.72 34.98 203.82 35.37"/><polygon class="cls-1" points="204.35 35.69 203.94 36.84 203.73 36.07 204.14 34.92 204.35 35.69"/><polygon class="cls-1" points="204.77 35.62 204.37 36.77 203.94 36.84 204.35 35.69 204.77 35.62"/><polygon class="cls-1" points="205.83 36.27 205.42 37.42 205.21 36.65 205.62 35.5 205.83 36.27"/><polygon class="cls-1" points="206.25 36.2 205.85 37.36 205.42 37.42 205.83 36.27 206.25 36.2"/><polygon class="cls-1" points="203.82 35.37 203.41 36.52 202.99 36.58 203.4 35.43 203.82 35.37"/><polygon class="cls-1" points="202.45 35.17 202.03 36.32 201.9 35.84 202.31 34.69 202.45 35.17"/><polygon class="cls-1" points="203.93 35.75 203.52 36.9 203.41 36.52 203.82 35.37 203.93 35.75"/><polygon class="cls-1" points="203.93 35.75 203.5 35.81 203.09 36.96 203.52 36.9 203.94 36.84 204.35 35.69 203.93 35.75"/><polygon class="cls-1" points="203.5 35.81 203.09 36.96 202.99 36.58 203.4 35.43 203.5 35.81"/><polygon class="cls-1" points="204.99 36.39 204.57 37.54 204.37 36.77 204.77 35.62 204.99 36.39"/><polygon class="cls-1" points="205.41 36.32 205 37.48 204.57 37.54 204.99 36.38 205.41 36.32"/><polygon class="cls-1" points="206.47 36.96 206.06 38.12 205.85 37.36 206.25 36.2 206.47 36.96"/><polygon class="cls-1" points="206.89 36.9 206.48 38.06 206.06 38.12 206.47 36.96 206.89 36.9"/><polygon class="cls-1" points="203.5 35.81 203.09 36.96 202.67 37.02 203.08 35.87 203.5 35.81"/><polygon class="cls-1" points="203.94 36.84 204.15 37.6 204.56 36.45 204.35 35.69 203.94 36.84"/><polygon class="cls-1" points="203.94 36.84 204.15 37.6 204.56 36.45 204.35 35.69 203.94 36.84"/><polygon class="cls-1" points="203.94 36.84 204.15 37.6 204.56 36.45 204.35 35.69 203.94 36.84"/><polygon class="cls-1" points="203.94 36.84 204.15 37.6 204.56 36.45 204.35 35.69 203.94 36.84"/><polygon class="cls-1" points="203.94 36.84 204.15 37.6 204.56 36.45 204.35 35.69 203.94 36.84"/><polygon class="cls-1" points="203.94 36.84 204.15 37.6 204.56 36.45 204.35 35.69 203.94 36.84"/><polygon class="cls-1" points="204.56 36.45 204.15 37.6 204.57 37.54 204.99 36.39 204.56 36.45"/><polygon class="cls-1" points="204.56 36.45 204.15 37.6 204.57 37.54 204.99 36.39 204.56 36.45"/><polygon class="cls-1" points="204.56 36.45 204.15 37.6 204.57 37.54 204.99 36.39 204.56 36.45"/><polygon class="cls-1" points="204.56 36.45 204.15 37.6 204.57 37.54 204.99 36.39 204.56 36.45"/><polygon class="cls-1" points="204.56 36.45 204.15 37.6 204.57 37.54 204.99 36.39 204.56 36.45"/><polygon class="cls-1" points="204.56 36.45 204.15 37.6 204.57 37.54 204.99 36.39 204.56 36.45"/><polygon class="cls-1" points="205.62 37.09 205.21 38.24 205 37.48 205.41 36.32 205.62 37.09"/><polygon class="cls-1" points="203.19 36.25 202.78 37.41 203.2 37.34 203.61 36.19 203.19 36.25"/><polygon class="cls-1" points="203.19 36.25 202.78 37.41 203.2 37.34 203.61 36.19 203.19 36.25"/><polygon class="cls-1" points="203.19 36.25 202.78 37.41 203.2 37.34 203.61 36.19 203.19 36.25"/><polygon class="cls-1" points="203.19 36.25 202.78 37.41 203.2 37.34 203.61 36.19 203.19 36.25"/><polygon class="cls-1" points="203.19 36.25 202.78 37.41 203.2 37.34 203.61 36.19 203.19 36.25"/><polygon class="cls-1" points="203.19 36.25 202.78 37.41 203.2 37.34 203.61 36.19 203.19 36.25"/><polygon class="cls-1" points="203.19 36.25 202.78 37.4 202.67 37.02 203.08 35.87 203.19 36.25"/><polygon class="cls-1" points="206.06 37.07 205.65 38.23 205.22 38.29 205.64 37.14 206.06 37.07"/><polygon class="cls-1" points="206.26 37.79 205.85 38.94 205.65 38.23 206.06 37.07 206.26 37.79"/><polygon class="cls-1" points="205.21 38.24 205.43 39 205.84 37.85 205.62 37.09 205.21 38.24"/><polygon class="cls-1" points="205.21 38.24 205.43 39 205.84 37.85 205.62 37.09 205.21 38.24"/><polygon class="cls-1" points="205.21 38.24 205.43 39 205.84 37.85 205.62 37.09 205.21 38.24"/><polygon class="cls-1" points="205.21 38.24 205.43 39 205.84 37.85 205.62 37.09 205.21 38.24"/><polygon class="cls-1" points="205.21 38.24 205.43 39 205.84 37.85 205.62 37.09 205.21 38.24"/><polygon class="cls-1" points="205.21 38.24 205.43 39 205.84 37.85 205.62 37.09 205.21 38.24"/><polygon class="cls-1" points="207.1 37.66 206.69 38.82 206.48 38.06 206.89 36.9 207.1 37.66"/><polygon class="cls-1" points="207.1 37.66 206.69 38.82 207.11 38.76 207.53 37.61 207.1 37.66"/><polygon class="cls-1" points="207.1 37.66 206.69 38.82 207.11 38.76 207.53 37.61 207.1 37.66"/><polygon class="cls-1" points="207.1 37.66 206.69 38.82 207.11 38.76 207.53 37.61 207.1 37.66"/><polygon class="cls-1" points="207.1 37.66 206.69 38.82 207.11 38.76 207.53 37.61 207.1 37.66"/><polygon class="cls-1" points="207.1 37.66 206.69 38.82 207.11 38.76 207.53 37.61 207.1 37.66"/><polygon class="cls-1" points="207.1 37.66 206.69 38.82 207.11 38.76 207.53 37.61 207.1 37.66"/><polygon class="cls-1" points="204.57 37.54 204.79 38.3 205.2 37.15 204.99 36.39 204.57 37.54"/><polygon class="cls-1" points="204.57 37.54 204.79 38.3 205.2 37.15 204.99 36.39 204.57 37.54"/><polygon class="cls-1" points="204.57 37.54 204.79 38.3 205.2 37.15 204.99 36.39 204.57 37.54"/><polygon class="cls-1" points="204.57 37.54 204.79 38.3 205.2 37.15 204.99 36.39 204.57 37.54"/><polygon class="cls-1" points="204.57 37.54 204.79 38.3 205.2 37.15 204.99 36.39 204.57 37.54"/><polygon class="cls-1" points="204.57 37.54 204.79 38.3 205.2 37.15 204.99 36.39 204.57 37.54"/><polygon class="cls-1" points="205.2 37.15 204.79 38.3 205.21 38.24 205.62 37.09 205.2 37.15"/><polygon class="cls-1" points="205.2 37.15 204.79 38.3 205.21 38.24 205.62 37.09 205.2 37.15"/><polygon class="cls-1" points="205.2 37.15 204.79 38.3 205.21 38.24 205.62 37.09 205.2 37.15"/><polygon class="cls-1" points="205.2 37.15 204.79 38.3 205.21 38.24 205.62 37.09 205.2 37.15"/><polygon class="cls-1" points="205.2 37.15 204.79 38.3 205.21 38.24 205.62 37.09 205.2 37.15"/><polygon class="cls-1" points="205.2 37.15 204.79 38.3 205.21 38.24 205.62 37.09 205.2 37.15"/><polygon class="cls-1" points="202.77 36.31 202.35 37.47 202.03 36.32 202.45 35.17 202.77 36.31"/><polygon class="cls-1" points="203.19 36.25 202.78 37.4 202.35 37.47 202.77 36.31 203.19 36.25"/><polygon class="cls-1" points="207.1 37.66 206.69 38.82 206.27 38.88 206.68 37.73 207.1 37.66"/><polygon class="cls-1" points="206.68 37.73 206.27 38.88 205.85 38.94 206.26 37.79 206.68 37.73"/><polygon class="cls-1" points="202.87 36.69 202.46 37.85 202.88 37.78 203.29 36.63 202.87 36.69"/><polygon class="cls-1" points="202.87 36.69 202.46 37.85 202.88 37.78 203.29 36.63 202.87 36.69"/><polygon class="cls-1" points="202.87 36.69 202.46 37.85 202.88 37.78 203.29 36.63 202.87 36.69"/><polygon class="cls-1" points="202.87 36.69 202.46 37.85 202.88 37.78 203.29 36.63 202.87 36.69"/><polygon class="cls-1" points="202.87 36.69 202.46 37.85 202.88 37.78 203.29 36.63 202.87 36.69"/><polygon class="cls-1" points="202.87 36.69 202.46 37.85 202.88 37.78 203.29 36.63 202.87 36.69"/><polygon class="cls-1" points="202.87 36.69 202.46 37.85 202.35 37.47 202.77 36.31 202.87 36.69"/><polygon class="cls-1" points="205.84 37.85 205.43 39 205.85 38.94 206.26 37.79 205.84 37.85"/><polygon class="cls-1" points="205.84 37.85 205.43 39 205.85 38.94 206.26 37.79 205.84 37.85"/><polygon class="cls-1" points="205.84 37.85 205.43 39 205.85 38.94 206.26 37.79 205.84 37.85"/><polygon class="cls-1" points="205.84 37.85 205.43 39 205.85 38.94 206.26 37.79 205.84 37.85"/><polygon class="cls-1" points="205.84 37.85 205.43 39 205.85 38.94 206.26 37.79 205.84 37.85"/><polygon class="cls-1" points="205.84 37.85 205.43 39 205.85 38.94 206.26 37.79 205.84 37.85"/><polygon class="cls-1" points="206.36 38.17 205.95 39.32 206.8 39.2 207.21 38.05 206.36 38.17"/><polygon class="cls-1" points="206.36 38.17 205.95 39.32 206.8 39.2 207.21 38.05 206.36 38.17"/><polygon class="cls-1" points="206.36 38.17 205.95 39.32 206.8 39.2 207.21 38.05 206.36 38.17"/><polygon class="cls-1" points="206.36 38.17 205.95 39.32 206.8 39.2 207.21 38.05 206.36 38.17"/><polygon class="cls-1" points="206.36 38.17 205.95 39.32 206.8 39.2 207.21 38.05 206.36 38.17"/><polygon class="cls-1" points="206.36 38.17 205.95 39.32 206.8 39.2 207.21 38.05 206.36 38.17"/><polygon class="cls-1" points="205.85 38.94 205.95 39.32 206.36 38.17 206.26 37.79 205.85 38.94"/><polygon class="cls-1" points="205.85 38.94 205.95 39.32 206.36 38.17 206.26 37.79 205.85 38.94"/><polygon class="cls-1" points="205.85 38.94 205.95 39.32 206.36 38.17 206.26 37.79 205.85 38.94"/><polygon class="cls-1" points="205.85 38.94 205.95 39.32 206.36 38.17 206.26 37.79 205.85 38.94"/><polygon class="cls-1" points="205.85 38.94 205.95 39.32 206.36 38.17 206.26 37.79 205.85 38.94"/><polygon class="cls-1" points="205.85 38.94 205.95 39.32 206.36 38.17 206.26 37.79 205.85 38.94"/><polygon class="cls-1" points="202.56 37.14 202.15 38.29 202.57 38.23 202.98 37.08 202.56 37.14"/><polygon class="cls-1" points="202.56 37.14 202.15 38.29 202.57 38.23 202.98 37.08 202.56 37.14"/><polygon class="cls-1" points="202.56 37.14 202.15 38.29 202.57 38.23 202.98 37.08 202.56 37.14"/><polygon class="cls-1" points="202.56 37.14 202.15 38.29 202.57 38.23 202.98 37.08 202.56 37.14"/><polygon class="cls-1" points="202.56 37.14 202.15 38.29 202.57 38.23 202.98 37.08 202.56 37.14"/><polygon class="cls-1" points="202.56 37.14 202.15 38.29 202.57 38.23 202.98 37.08 202.56 37.14"/><polygon class="cls-1" points="200.46 32.23 202.15 38.29 202.56 37.14 200.87 31.08 200.46 32.23"/><polygon class="cls-1" points="200.46 32.23 202.15 38.29 202.56 37.14 200.87 31.08 200.46 32.23"/><polygon class="cls-1" points="200.46 32.23 202.15 38.29 202.56 37.14 200.87 31.08 200.46 32.23"/><polygon class="cls-1" points="200.46 32.23 202.15 38.29 202.56 37.14 200.87 31.08 200.46 32.23"/><polygon class="cls-1" points="200.46 32.23 202.15 38.29 202.56 37.14 200.87 31.08 200.46 32.23"/><polygon class="cls-1" points="200.46 32.23 202.15 38.29 202.56 37.14 200.87 31.08 200.46 32.23"/><polygon class="cls-1" points="201.81 31.29 201.91 31.68 201.49 31.73 201.38 31.35 201.81 31.29"/><polygon class="cls-1" points="202.34 31.61 202.44 32 202.02 32.05 201.91 31.68 202.34 31.61"/><polygon class="cls-1" points="202.86 31.93 202.97 32.31 202.55 32.38 202.44 32 202.86 31.93"/><polygon class="cls-1" points="203.39 32.25 203.5 32.63 203.08 32.7 202.97 32.32 203.39 32.25"/><polygon class="cls-1" points="203.92 32.57 204.03 32.95 203.61 33.02 203.5 32.63 203.92 32.57"/><polygon class="cls-1" points="204.45 32.89 204.56 33.28 204.13 33.34 204.03 32.95 204.45 32.89"/><polygon class="cls-1" points="204.98 33.21 205.09 33.6 204.66 33.65 204.56 33.28 204.98 33.21"/><polygon class="cls-1" points="205.51 33.53 205.62 33.91 205.19 33.98 205.09 33.6 205.51 33.53"/><polygon class="cls-1" points="206.04 33.85 206.15 34.23 205.72 34.29 205.62 33.91 206.04 33.85"/><polygon class="cls-1" points="206.57 34.17 206.67 34.56 206.25 34.62 206.15 34.23 206.57 34.17"/><polygon class="cls-1" points="207.07 34.5 207.18 34.88 205.51 35.12 205.41 34.74 206.25 34.62 206.67 34.56 207.07 34.5"/><polygon class="cls-1" points="206.04 35.44 206.25 36.2 205.83 36.27 205.62 35.5 206.04 35.44"/><polygon class="cls-1" points="204.14 34.92 204.35 35.69 203.93 35.75 203.82 35.37 203.72 34.98 204.14 34.92"/><polygon class="cls-1" points="203.82 35.37 203.93 35.75 203.5 35.81 203.4 35.43 203.82 35.37"/><polygon class="cls-1" points="206.68 36.14 206.89 36.9 206.47 36.96 206.25 36.2 206.68 36.14"/><polygon class="cls-1" points="204.77 35.62 204.99 36.38 204.56 36.45 204.35 35.69 204.77 35.62"/><polygon class="cls-1" points="203.5 35.81 203.61 36.19 203.19 36.25 203.08 35.87 203.5 35.81"/><polygon class="cls-1" points="207.31 36.84 207.53 37.61 207.1 37.66 206.89 36.9 207.31 36.84"/><polygon class="cls-1" points="205.41 36.32 205.62 37.09 205.2 37.15 204.99 36.38 205.41 36.32"/><polygon class="cls-1" points="201.49 31.73 201.92 33.26 201.94 33.36 202.31 34.69 202.45 35.17 202.77 36.31 203.19 36.25 203.08 35.87 203.5 35.81 203.4 35.43 203.82 35.37 203.72 34.98 204.14 34.92 204.35 35.69 204.77 35.62 204.99 36.39 205.41 36.32 205.62 37.09 205.64 37.14 206.06 37.08 206.26 37.79 206.68 37.73 207.1 37.66 206.89 36.9 206.47 36.96 206.26 36.2 205.83 36.27 205.62 35.5 205.61 35.45 205.18 35.52 205.01 34.89 204.98 34.8 205.41 34.74 205.83 34.68 206.25 34.62 206.15 34.23 205.72 34.29 205.62 33.91 205.19 33.98 205.09 33.6 204.66 33.65 204.56 33.28 204.13 33.34 204.03 32.96 203.61 33.02 203.5 32.63 203.08 32.7 202.97 32.31 202.55 32.38 202.44 32 202.02 32.05 201.91 31.68 201.49 31.73"/><polygon class="cls-1" points="201.49 31.73 201.92 33.26 201.94 33.36 202.31 34.69 202.45 35.17 202.77 36.31 203.19 36.25 203.08 35.87 203.5 35.81 203.4 35.43 203.82 35.37 203.72 34.98 204.14 34.92 204.35 35.69 204.77 35.62 204.99 36.39 205.41 36.32 205.62 37.09 205.64 37.14 206.06 37.08 206.26 37.79 206.68 37.73 207.1 37.66 206.89 36.9 206.47 36.96 206.26 36.2 205.83 36.27 205.62 35.5 205.61 35.45 205.18 35.52 205.01 34.89 204.98 34.8 205.41 34.74 205.83 34.68 206.25 34.62 206.15 34.23 205.72 34.29 205.62 33.91 205.19 33.98 205.09 33.6 204.66 33.65 204.56 33.28 204.13 33.34 204.03 32.96 203.61 33.02 203.5 32.63 203.08 32.7 202.97 32.31 202.55 32.38 202.44 32 202.02 32.05 201.91 31.68 201.49 31.73"/><polygon class="cls-1" points="201.49 31.73 201.92 33.26 201.94 33.36 202.31 34.69 202.45 35.17 202.77 36.31 203.19 36.25 203.08 35.87 203.5 35.81 203.4 35.43 203.82 35.37 203.72 34.98 204.14 34.92 204.35 35.69 204.77 35.62 204.99 36.39 205.41 36.32 205.62 37.09 205.64 37.14 206.06 37.08 206.26 37.79 206.68 37.73 207.1 37.66 206.89 36.9 206.47 36.96 206.26 36.2 205.83 36.27 205.62 35.5 205.61 35.45 205.18 35.52 205.01 34.89 204.98 34.8 205.41 34.74 205.83 34.68 206.25 34.62 206.15 34.23 205.72 34.29 205.62 33.91 205.19 33.98 205.09 33.6 204.66 33.65 204.56 33.28 204.13 33.34 204.03 32.96 203.61 33.02 203.5 32.63 203.08 32.7 202.97 32.31 202.55 32.38 202.44 32 202.02 32.05 201.91 31.68 201.49 31.73"/><polygon class="cls-1" points="203.19 36.25 203.29 36.63 202.87 36.69 202.77 36.31 203.19 36.25"/><polygon class="cls-1" points="205.62 37.09 205.64 37.14 206.06 37.07 206.26 37.79 205.84 37.85 205.62 37.09"/><polygon class="cls-1" points="207.1 37.66 207.21 38.05 206.36 38.17 206.26 37.79 207.1 37.66"/><polygon class="cls-1" points="200.87 31.08 202.56 37.14 202.98 37.08 202.87 36.69 202.77 36.31 201.49 31.73 201.38 31.35 201.29 31.02 200.87 31.08"/><path class="cls-1" d="M202.31,34.69l.14.48.32,1.14.42-.06-.11-.38.43-.06-.11-.38.42-.06-.1-.39.42-.06.21.77.42-.07.22.77.42-.07.21.76,0,.06.42-.07.2.72.42-.06.42-.07-.21-.76-.42.06-.21-.76-.43.06-.21-.76v0l-.43.07-.17-.63,0-.09.43-.06.42-.06.42-.06-.1-.36a8.52,8.52,0,0,1-4-.12Z"/><path class="cls-1" d="M202.31,34.69l.14.48.32,1.14.42-.06-.11-.38.43-.06-.11-.38.42-.06-.1-.39.42-.06.21.77.42-.07.22.77.42-.07.21.76,0,.06.42-.07.2.72.42-.06.42-.07-.21-.76-.42.06-.21-.76-.43.06-.21-.76v0l-.43.07-.17-.63,0-.09.43-.06.42-.06.42-.06-.1-.36a8.52,8.52,0,0,1-4-.12Z"/><rect class="cls-1" x="83.29" y="18.24" width="1.96" height="1.93"/><rect class="cls-1" x="83.29" y="20.49" width="1.96" height="1.93"/><rect class="cls-1" x="83.29" y="22.73" width="1.96" height="1.93"/><rect class="cls-1" x="83.29" y="16" width="1.96" height="1.93"/><rect class="cls-1" x="94.66" y="11.51" width="1.96" height="1.93"/><rect class="cls-1" x="92.39" y="13.76" width="1.96" height="1.93"/><rect class="cls-1" x="94.66" y="16" width="1.96" height="1.93"/><rect class="cls-1" x="94.66" y="13.76" width="1.96" height="1.93"/><rect class="cls-1" x="94.66" y="7.03" width="1.96" height="1.93"/><rect class="cls-1" x="94.66" y="9.27" width="1.96" height="1.93"/><rect class="cls-1" x="94.66" y="20.49" width="1.96" height="1.93"/><rect class="cls-1" x="92.39" y="4.78" width="1.96" height="1.93"/><rect class="cls-1" x="94.66" y="22.73" width="1.96" height="1.93"/><rect class="cls-1" x="94.66" y="18.24" width="1.96" height="1.93"/><rect class="cls-1" x="94.66" y="4.78" width="1.96" height="1.93"/><rect class="cls-1" x="96.93" y="9.27" width="1.96" height="1.93"/><rect class="cls-1" x="96.93" y="16" width="1.96" height="1.93"/><rect class="cls-1" x="96.93" y="7.03" width="1.96" height="1.93"/><rect class="cls-1" x="96.93" y="11.51" width="1.96" height="1.93"/><rect class="cls-1" x="83.29" y="13.76" width="1.96" height="1.93"/><rect class="cls-1" x="96.93" y="20.49" width="1.96" height="1.93"/><rect class="cls-1" x="96.93" y="18.24" width="1.96" height="1.93"/><rect class="cls-1" x="96.93" y="22.73" width="1.96" height="1.93"/><rect class="cls-1" x="85.56" y="16" width="1.96" height="1.93"/><rect class="cls-1" x="83.29" y="4.78" width="1.96" height="1.93"/><rect class="cls-1" x="85.56" y="22.73" width="1.96" height="1.93"/><rect class="cls-1" x="85.56" y="18.24" width="1.96" height="1.93"/><rect class="cls-1" x="85.56" y="20.49" width="1.96" height="1.93"/><rect class="cls-1" x="83.29" y="11.51" width="1.96" height="1.93"/><rect class="cls-1" x="83.29" y="7.03" width="1.96" height="1.93"/><rect class="cls-1" x="90.11" y="4.78" width="1.96" height="1.93"/><rect class="cls-1" x="83.29" y="9.27" width="1.96" height="1.93"/><rect class="cls-1" x="85.56" y="13.76" width="1.96" height="1.93"/><rect class="cls-1" x="87.84" y="13.76" width="1.96" height="1.93"/><rect class="cls-1" x="90.11" y="13.76" width="1.96" height="1.93"/><rect class="cls-1" x="85.56" y="4.78" width="1.96" height="1.93"/><rect class="cls-1" x="87.84" y="4.78" width="1.96" height="1.93"/><rect class="cls-1" x="85.56" y="7.03" width="1.96" height="1.93"/><rect class="cls-1" x="85.56" y="11.51" width="1.96" height="1.93"/><rect class="cls-1" x="85.56" y="9.27" width="1.96" height="1.93"/><rect class="cls-1" x="126.48" y="4.78" width="1.96" height="1.93"/><rect class="cls-1" x="124.21" y="7.03" width="1.96" height="1.93"/><rect class="cls-1" x="126.48" y="13.76" width="1.96" height="1.93"/><rect class="cls-1" x="124.21" y="4.78" width="1.96" height="1.93"/><rect class="cls-1" x="124.21" y="11.51" width="1.96" height="1.93"/><rect class="cls-1" x="124.21" y="9.27" width="1.96" height="1.93"/><rect class="cls-1" x="131.03" y="4.78" width="1.96" height="1.93"/><rect class="cls-1" x="128.76" y="13.76" width="1.96" height="1.93"/><rect class="cls-1" x="133.31" y="4.78" width="1.95" height="1.93"/><rect class="cls-1" x="124.21" y="13.76" width="1.96" height="1.93"/><rect class="cls-1" x="128.76" y="4.78" width="1.96" height="1.93"/><rect class="cls-1" x="131.03" y="13.76" width="1.96" height="1.93"/><rect class="cls-1" x="124.21" y="20.49" width="1.96" height="1.93"/><rect class="cls-1" x="121.94" y="16" width="1.96" height="1.93"/><rect class="cls-1" x="121.94" y="9.27" width="1.96" height="1.93"/><rect class="cls-1" x="129.74" y="21.6" width="1.96" height="1.93"/><rect class="cls-1" x="121.94" y="13.76" width="1.96" height="1.93"/><rect class="cls-1" x="124.21" y="16" width="1.96" height="1.93"/><rect class="cls-1" x="121.94" y="20.49" width="1.96" height="1.93"/><rect class="cls-1" x="121.94" y="18.24" width="1.96" height="1.93"/><rect class="cls-1" x="121.94" y="22.73" width="1.96" height="1.93"/><rect class="cls-1" x="124.21" y="18.24" width="1.96" height="1.93"/><rect class="cls-1" x="121.94" y="4.78" width="1.96" height="1.93"/><rect class="cls-1" x="121.94" y="7.03" width="1.96" height="1.93"/><rect class="cls-1" x="124.21" y="22.73" width="1.96" height="1.93"/><rect class="cls-1" x="140.12" y="22.73" width="1.96" height="1.93"/><rect class="cls-1" x="140.12" y="13.76" width="1.96" height="1.93"/><rect class="cls-1" x="140.12" y="18.24" width="1.96" height="1.93"/><rect class="cls-1" x="140.12" y="20.49" width="1.96" height="1.93"/><rect class="cls-1" x="140.12" y="16" width="1.96" height="1.93"/><rect class="cls-1" x="140.12" y="11.51" width="1.96" height="1.93"/><rect class="cls-1" x="140.12" y="4.78" width="1.96" height="1.93"/><rect class="cls-1" x="143.69" y="25.97" width="1.96" height="1.93"/><rect class="cls-1" x="140.12" y="9.27" width="1.96" height="1.93"/><rect class="cls-1" x="137.85" y="7.03" width="1.96" height="1.93"/><rect class="cls-1" x="137.85" y="16" width="1.96" height="1.93"/><rect class="cls-1" x="137.85" y="20.49" width="1.96" height="1.93"/><rect class="cls-1" x="137.85" y="18.24" width="1.96" height="1.93"/><rect class="cls-1" x="137.85" y="22.73" width="1.96" height="1.93"/><rect class="cls-1" x="145.4" width="1.96" height="1.93"/><rect class="cls-1" x="137.85" y="9.27" width="1.96" height="1.93"/><rect class="cls-1" x="137.85" y="11.51" width="1.96" height="1.93"/><rect class="cls-1" x="137.85" y="4.78" width="1.96" height="1.93"/><rect class="cls-1" x="153.76" y="22.73" width="1.96" height="1.93"/><rect class="cls-1" x="156.03" y="22.73" width="1.96" height="1.93"/><rect class="cls-1" x="151.49" y="4.78" width="1.96" height="1.93"/><rect class="cls-1" x="149.22" y="4.78" width="1.95" height="1.93"/><rect class="cls-1" x="149.22" y="22.73" width="1.95" height="1.93"/><rect class="cls-1" x="151.49" y="22.73" width="1.96" height="1.93"/><rect class="cls-1" x="156.03" y="4.78" width="1.96" height="1.93"/><rect class="cls-1" x="153.76" y="4.78" width="1.96" height="1.93"/><rect class="cls-1" x="158.31" y="4.78" width="1.96" height="1.93"/><rect class="cls-1" x="158.31" y="22.73" width="1.96" height="1.93"/><rect class="cls-1" x="160.58" y="7.03" width="1.96" height="1.93"/><rect class="cls-1" x="160.58" y="20.49" width="1.96" height="1.93"/><rect class="cls-1" x="158.31" y="20.49" width="1.96" height="1.93"/><rect class="cls-1" x="158.31" y="7.03" width="1.96" height="1.93"/><rect class="cls-1" x="146.94" y="4.78" width="1.96" height="1.93"/><rect class="cls-1" x="144.67" y="11.51" width="1.96" height="1.93"/><rect class="cls-1" x="144.67" y="9.27" width="1.96" height="1.93"/><rect class="cls-1" x="144.67" y="13.76" width="1.96" height="1.93"/><rect class="cls-1" x="144.67" y="7.03" width="1.96" height="1.93"/><rect class="cls-1" x="144.67" y="20.49" width="1.96" height="1.93"/><rect class="cls-1" x="146.94" y="22.73" width="1.96" height="1.93"/><rect class="cls-1" x="163.17" y="26.38" width="1.96" height="1.93"/><rect class="cls-1" x="144.67" y="16" width="1.96" height="1.93"/><rect class="cls-1" x="146.94" y="7.03" width="1.96" height="1.93"/><rect class="cls-1" x="146.94" y="11.51" width="1.96" height="1.93"/><rect class="cls-1" x="150.51" y="13.08" width="1.96" height="1.93"/><rect class="cls-1" x="160.27" y="17.28" width="1.96" height="1.93"/><rect class="cls-1" x="146.94" y="20.49" width="1.96" height="1.93"/><rect class="cls-1" x="146.94" y="13.76" width="1.96" height="1.93"/><rect class="cls-1" x="146.94" y="16" width="1.96" height="1.93"/><rect class="cls-1" x="146.94" y="18.24" width="1.96" height="1.93"/><rect class="cls-1" x="186.25" y="28.15" width="1.96" height="1.93"/><rect class="cls-1" x="176.5" y="18.24" width="1.96" height="1.93"/><rect class="cls-1" x="174.22" y="4.78" width="1.96" height="1.93"/><rect class="cls-1" x="176.5" y="13.76" width="1.96" height="1.93"/><rect class="cls-1" x="176.5" y="11.51" width="1.96" height="1.93"/><rect class="cls-1" x="174.22" y="11.51" width="1.96" height="1.93"/><rect class="cls-1" x="174.22" y="7.03" width="1.96" height="1.93"/><rect class="cls-1" x="174.22" y="9.27" width="1.96" height="1.93"/><rect class="cls-1" x="181.04" y="20.49" width="1.96" height="1.93"/><rect class="cls-1" x="178.77" y="18.24" width="1.96" height="1.93"/><rect class="cls-1" x="178.77" y="16" width="1.96" height="1.93"/><rect class="cls-1" x="178.77" y="13.76" width="1.96" height="1.93"/><rect class="cls-1" x="195.68" y="27.21" width="1.96" height="1.93"/><rect class="cls-1" x="174.22" y="18.24" width="1.96" height="1.93"/><rect class="cls-1" x="176.5" y="9.27" width="1.96" height="1.93"/><rect class="cls-1" x="178.77" y="22.73" width="1.96" height="1.93"/><rect class="cls-1" x="178.77" y="20.49" width="1.96" height="1.93"/><rect class="cls-1" x="169.68" y="16" width="1.96" height="1.93"/><rect class="cls-1" x="167.4" y="20.49" width="1.96" height="1.93"/><rect class="cls-1" x="167.4" y="18.24" width="1.96" height="1.93"/><rect class="cls-1" x="167.4" y="16" width="1.96" height="1.93"/><rect class="cls-1" x="169.68" y="18.24" width="1.96" height="1.93"/><rect class="cls-1" x="167.4" y="13.76" width="1.96" height="1.93"/><rect class="cls-1" x="165.13" y="22.73" width="1.95" height="1.93"/><rect class="cls-1" x="171.95" y="4.78" width="1.96" height="1.93"/><rect class="cls-1" x="167.4" y="22.73" width="1.96" height="1.93"/><rect class="cls-1" x="165.13" y="20.49" width="1.95" height="1.93"/><rect class="cls-1" x="183" y="24.04" width="1.96" height="1.93"/><rect class="cls-1" x="187.37" y="22.11" width="1.96" height="1.93"/><rect class="cls-1" x="171.95" y="7.03" width="1.96" height="1.93"/><rect class="cls-1" x="171.95" y="11.51" width="1.96" height="1.93"/><rect class="cls-1" x="171.95" y="18.24" width="1.96" height="1.93"/><rect class="cls-1" x="169.68" y="13.76" width="1.96" height="1.93"/><rect class="cls-1" x="169.68" y="11.51" width="1.96" height="1.93"/><rect class="cls-1" x="169.68" y="9.27" width="1.96" height="1.93"/><polygon class="cls-1" points="13.64 4.78 8.93 13.76 4.23 4.78 0 4.78 0 24.66 4.23 24.66 4.23 17.93 6.74 22.42 11.05 22.42 13.64 17.93 13.64 24.66 17.87 24.66 17.87 4.78 13.64 4.78"/><path class="cls-1" d="M27.22,18.24V18L29,13.41l2.31,4.83ZM31.55,4.78H27.28L20.46,20.49v4.17h4.23V20.17h9.42v.32h0v4.17h4.23V20.49Z"/><rect class="cls-1" x="112.84" y="18.24" width="1.96" height="1.93"/><rect class="cls-1" x="112.84" y="13.76" width="1.96" height="1.93"/><rect class="cls-1" x="112.84" y="16" width="1.96" height="1.93"/><rect class="cls-1" x="112.84" y="9.27" width="1.96" height="1.93"/><rect class="cls-1" x="110.57" y="18.24" width="1.95" height="1.93"/><rect class="cls-1" x="110.57" y="9.27" width="1.95" height="1.93"/><rect class="cls-1" x="110.57" y="11.51" width="1.95" height="1.93"/><rect class="cls-1" x="115.12" y="13.76" width="1.96" height="1.93"/><rect class="cls-1" x="117.39" y="22.73" width="1.96" height="1.93"/><rect class="cls-1" x="117.39" y="20.49" width="1.96" height="1.93"/><rect class="cls-1" x="115.12" y="16" width="1.96" height="1.93"/><rect class="cls-1" x="115.12" y="20.49" width="1.96" height="1.93"/><rect class="cls-1" x="115.12" y="18.24" width="1.96" height="1.93"/><rect class="cls-1" x="115.12" y="22.73" width="1.96" height="1.93"/><rect class="cls-1" x="112.84" y="11.51" width="1.96" height="1.93"/><rect class="cls-1" x="108.3" y="18.24" width="1.96" height="1.93"/><polygon class="cls-1" points="110.25 4.78 108.93 4.78 108.3 4.78 108.3 6 108.29 6.01 108.3 4.78 101.48 20.49 101.48 22.42 101.48 22.73 101.48 24.66 103.44 24.66 103.75 24.66 105.71 24.66 105.71 22.73 105.71 22.42 105.71 20.96 105.71 20.49 105.71 20.17 106.02 20.17 107.98 20.17 108.14 20.17 108.24 20.17 108.26 13.44 108.3 13.44 110.25 13.44 110.25 11.51 109.24 11.51 109.39 11.2 110.25 11.2 110.25 9.44 110.57 8.79 110.57 8.96 112.53 8.96 112.53 7.03 111.43 7.03 111.58 6.71 112.53 6.71 112.53 4.78 110.57 4.78 110.25 4.78"/><polygon class="cls-1" points="51.47 4.78 51.47 8.96 46.76 16 42.06 8.96 42.06 4.78 37.83 4.78 37.83 8.96 44.65 24.66 48.88 24.66 55.7 8.96 55.7 4.78 51.47 4.78"/><rect class="cls-1" x="60.56" y="22.73" width="1.96" height="1.93"/><rect class="cls-1" x="60.56" y="16" width="1.96" height="1.93"/><rect class="cls-1" x="60.56" y="13.76" width="1.96" height="1.93"/><rect class="cls-1" x="60.56" y="20.49" width="1.96" height="1.93"/><rect class="cls-1" x="60.56" y="18.24" width="1.96" height="1.93"/><rect class="cls-1" x="60.56" y="7.03" width="1.96" height="1.93"/><rect class="cls-1" x="60.56" y="11.51" width="1.96" height="1.93"/><rect class="cls-1" x="60.56" y="4.78" width="1.96" height="1.93"/><rect class="cls-1" x="60.56" y="9.27" width="1.96" height="1.93"/><rect class="cls-1" x="58.29" y="9.27" width="1.96" height="1.93"/><rect class="cls-1" x="58.29" y="4.78" width="1.96" height="1.93"/><rect class="cls-1" x="58.29" y="18.24" width="1.96" height="1.93"/><rect class="cls-1" x="58.29" y="20.49" width="1.96" height="1.93"/><rect class="cls-1" x="58.29" y="22.73" width="1.96" height="1.93"/><rect class="cls-1" x="58.29" y="16" width="1.96" height="1.93"/><rect class="cls-1" x="58.29" y="7.03" width="1.96" height="1.93"/><rect class="cls-1" x="58.29" y="13.76" width="1.96" height="1.93"/><rect class="cls-1" x="58.29" y="11.51" width="1.96" height="1.93"/><polygon class="cls-1" points="58.29 24.66 59.63 24.66 62.52 4.78 58.29 4.78 58.29 24.66"/><rect class="cls-1" x="74.2" y="4.78" width="1.96" height="1.93"/><rect class="cls-1" x="76.47" y="20.49" width="1.96" height="1.93"/><rect class="cls-1" x="74.2" y="13.76" width="1.96" height="1.93"/><rect class="cls-1" x="76.47" y="22.73" width="1.96" height="1.93"/><rect class="cls-1" x="71.93" y="4.78" width="1.96" height="1.93"/><rect class="cls-1" x="76.47" y="16" width="1.96" height="1.93"/><rect class="cls-1" x="71.93" y="13.76" width="1.96" height="1.93"/><rect class="cls-1" x="74.2" y="22.73" width="1.96" height="1.93"/><rect class="cls-1" x="76.47" y="18.24" width="1.96" height="1.93"/><rect class="cls-1" x="78.75" y="13.76" width="1.95" height="1.93"/><rect class="cls-1" x="78.75" y="16" width="1.95" height="1.93"/><rect class="cls-1" x="78.75" y="18.24" width="1.95" height="1.93"/><rect class="cls-1" x="78.75" y="7.03" width="1.95" height="1.93"/><rect class="cls-1" x="76.47" y="13.76" width="1.96" height="1.93"/><rect class="cls-1" x="78.75" y="20.49" width="1.95" height="1.93"/><rect class="cls-1" x="76.47" y="4.78" width="1.96" height="1.93"/><rect class="cls-1" x="76.47" y="7.03" width="1.96" height="1.93"/><rect class="cls-1" x="78.75" y="22.73" width="1.95" height="1.93"/><rect class="cls-1" x="67.38" y="9.27" width="1.96" height="1.93"/><rect class="cls-1" x="67.38" y="20.49" width="1.96" height="1.93"/><rect class="cls-1" x="65.11" y="9.27" width="1.96" height="1.93"/><rect class="cls-1" x="65.11" y="11.51" width="1.96" height="1.93"/><rect class="cls-1" x="67.38" y="22.73" width="1.96" height="1.93"/><rect class="cls-1" x="65.11" y="7.03" width="1.96" height="1.93"/><rect class="cls-1" x="65.11" y="18.24" width="1.96" height="1.93"/><rect class="cls-1" x="65.11" y="20.49" width="1.96" height="1.93"/><rect class="cls-1" x="71.93" y="22.73" width="1.96" height="1.93"/><rect class="cls-1" x="65.11" y="16" width="1.96" height="1.93"/><rect class="cls-1" x="65.11" y="13.76" width="1.96" height="1.93"/><rect class="cls-1" x="67.38" y="4.78" width="1.96" height="1.93"/><rect class="cls-1" x="67.38" y="18.24" width="1.96" height="1.93"/><rect class="cls-1" x="69.65" y="4.78" width="1.96" height="1.93"/><rect class="cls-1" x="67.38" y="7.03" width="1.96" height="1.93"/><rect class="cls-1" x="69.65" y="22.73" width="1.96" height="1.93"/><rect class="cls-1" x="67.38" y="16" width="1.96" height="1.93"/><rect class="cls-1" x="67.38" y="13.76" width="1.96" height="1.93"/><rect class="cls-1" x="67.38" y="11.51" width="1.96" height="1.93"/><polygon class="cls-1" points="76.47 7.03 69.37 7.03 69.37 22.42 76.47 22.42 76.47 24.66 67.38 24.66 65.11 22.42 65.11 7.03 67.38 4.78 78.43 4.78 80.7 7.03 80.7 8.96 76.47 8.96 76.47 7.03"/><polygon class="cls-1" points="98.89 7.03 96.61 4.78 83.29 4.78 83.29 24.66 87.52 24.66 87.52 15.69 90.11 13.76 87.52 13.76 87.52 7.03 94.66 7.03 94.66 8.96 98.89 7.03"/><path class="cls-1" d="M181.38,19.6h-.3v.26h.3Zm1.9-.75h-2.2v.23h2.2Zm-1.9-.9h-.3v.27h.3Zm1.24-1.09h-1.54v.23h1c.27,0,.41.09.41.37s-.06.26-.25.26h-.11v.22h.12a.38.38,0,0,0,.43-.43.43.43,0,0,0-.21-.43h.19ZM181.38,16h-.3v.27h.3Zm.72-1.25c0,.4,0,.59-.38.59s-.44-.13-.44-.6,0-.56.49-.55v-.26c-.64,0-.7.25-.7.81s0,.85.64.85.58-.27.61-.79,0-.61.39-.61.37.07.37.56,0,.54-.4.55v.25c.6,0,.62-.32.62-.79s-.05-.82-.64-.82-.53.37-.56.81"/></g></g></svg>