<?xml version="1.0" encoding="utf-8"?>
<!-- Generator: Adobe Illustrator 16.0.4, SVG Export Plug-In . SVG Version: 6.00 Build 0)  -->
<!DOCTYPE svg PUBLIC "-//W3C//DTD SVG 1.1//EN" "http://www.w3.org/Graphics/SVG/1.1/DTD/svg11.dtd">
<svg version="1.1" id="Layer_1" xmlns="http://www.w3.org/2000/svg" xmlns:xlink="http://www.w3.org/1999/xlink" x="0px" y="0px"
	 viewBox="0 0 283.46 283.46" enable-background="new 0 0 283.46 283.46" xml:space="preserve">
<g>
	<path fill="#0080BF" d="M38.622,162.748C38.628,162.734,38.622,162.734,38.622,162.748L38.622,162.748z"/>
	<path fill="#0080BF" d="M111.74,140.403C111.732,140.419,111.754,140.403,111.74,140.403C111.737,140.407,111.74,140.403,111.74,140.403z"/>
	<path fill="#0080BF" d="M189.63,152.546C189.615,152.564,189.667,152.522,189.63,152.546C189.628,152.547,189.63,152.546,189.63,152.546z"/>
	<path fill="#0080BF" d="M282.75,166.88c-0.809-3.711-1.37-7.457-2.621-11.03c-0.26-0.743-0.307-1.521-0.58-2.292c-0.316-0.896-0.649-1.786-1-2.67
		c-0.759-1.906-1.598-3.782-2.523-5.615c-3.465-6.858-8.176-13.581-14.035-18.609c-6.093-5.229-12.379-9.794-19.797-12.99
		c-7.456-3.213-15.59-5.318-23.731-5.5c-8.361-0.189-16.917,0.481-24.918,3.037c-7.593,2.424-15.36,5.674-21.827,10.394
		c-3.072,2.442-6.245,4.613-9.114,7.326c-2.987,2.827-5.735,5.898-8.54,8.903c-2.953,3.166-5.751,6.399-8.566,9.681
		c-2.647,3.089-5.676,6.088-7.954,9.457c-2.719,2.788-4.735,6.294-7.25,9.272c-2.587,3.062-5.167,6.127-7.724,9.217
		c-5.007,6.049-10.244,11.833-15.886,17.301c-5.318,5.153-10.767,9.699-17.567,12.801c-3.17,1.444-6.523,2.732-9.984,3.212
		c-3.711,1.381-7.877,1.042-11.784,1.18c-5.161-0.698-10.468-2.095-15.049-4.644c-2.143-1.191-3.818-2.949-5.608-4.618
		c-1.91-1.781-3.86-3.619-5.322-5.797c-1.404-2.091-2.982-4.596-3.72-7.001c-0.415-1.354-0.832-2.706-1.246-4.061
		c-0.423-1.378-0.309-2.783-0.479-4.213c-0.688-5.797,0.696-11.066,2.422-16.539c0.425-0.334,0.574-1.191,0.842-1.703
		c0.34-0.653,0.677-1.179,1.073-1.811c-0.15,0.137,0.37-0.508,0.279-0.327c0.288-0.521,0.538-0.817,0.947-1.301
		c0.349-0.506,0.745-1.063,0.985-1.554c0.382-0.395,0.655-0.789,0.983-1.283c0.259-0.285,0.625-0.648,0.939-0.972
		c0.632-0.647,1.669-1.379,2.225-2.202c2.072-1.201,3.987-2.813,6.096-4.045c2.352-1.371,4.86-2.49,7.497-3.186
		c2.636-0.696,5.312-0.846,8.029-0.85c3.036-0.004,6.122-0.1,9.151,0.041c5.669,0.262,10.7,2.967,16.175,4.095
		c2.749,0.567,5.367,0.427,8.076-0.271c1.878-0.484,4.414-1.285,5.625-2.811c-0.16,0.091,0.831-0.461,0.623-0.35
		c1.177-1.08,2.159-2.023,3.199-3.208c-0.122,0.222,0.454-0.798,0.353-0.623c-0.006,0.005,0.013-0.073-0.025,0.019
		c1.668-1.801,2.409-4.961,3.104-7.363c0.08-1.842,0.208-3.697,0.015-5.536c-0.221-2.103-1.004-3.894-2.044-5.712
		c-3.695-6.463-7.872-12.906-8.358-20.56c-0.426-6.69,2.062-13.841,6.473-18.884c4.837-5.532,11.716-8.33,18.909-9.101
		c7.568-0.812,15.472,0.623,22.177,4.266c2.931,1.592,5.612,3.622,7.948,6.003c2.374,2.419,4.098,5.41,6.707,7.596
		c4.9,4.104,11.692,5.335,17.699,3.124c5.29-1.949,9.289-6.478,10.853-11.861c1.656-5.705,0.355-11.454-3.173-16.149
		c-4.729-6.289-10.45-11.821-16.953-16.256c-6.594-4.499-14.131-7.494-21.807-9.585c-8.029-2.188-16.879-2.961-25.166-2.2
		c-4.129,0.38-8.159,0.773-12.171,1.871c-3.88,1.061-7.764,2.329-11.462,3.924c-6.787,2.926-12.857,7.344-18.003,12.625
		C76.12,67.252,70.341,80.879,69.291,95.184c-0.145,1.991-0.333,4.008-0.305,6.004c0.028,1.879,0.538,3.949,0.255,5.81
		c-0.247,1.632-2.796,1.346-4.007,1.478c-2.198,0.24-4.399,0.437-6.595,0.69c-8.055,0.93-15.644,3.533-22.797,7.323
		c-6.746,3.575-12.705,8.257-17.893,13.853c-5.379,5.802-9.301,12.406-12.403,19.66c-1.541,3.6-3.06,7.271-3.804,11.127
		c-0.369,1.907-0.633,3.832-1.021,5.735c-0.089,0.647-0.536,1.948-0.354,2.564c-0.404,1.063-0.37,1.983-0.365,3.128
		c0.035,7.985,0.255,16.026,2.924,23.625c0.678,1.934,1.396,3.853,2.105,5.773c0.734,1.985,1.719,3.762,2.739,5.617
		c2.02,3.671,3.879,7.451,6.39,10.816c2.147,2.88,4.562,5.557,7.195,8c2.14,1.988,4.528,4.168,7.014,5.633
		c1.407,1.219,3.109,2.091,4.691,3.065c1.397,0.859,2.841,1.693,4.249,2.361c1.123,0.821,2.606,1.33,3.875,1.896
		c1.529,0.584,3.051,1.249,4.604,1.764c1.527,0.506,3.21,0.859,4.69,1.447c0.285,0.113,3.437,0.674,3.437,0.974
		c0,0.001,0,0.001,0.001,0.001c0.289,0.404,1.54,0.314,2.006,0.408c1.012,0.203,2.019,0.43,3.033,0.629
		c2.195,0.428,4.389,0.538,6.621,0.604c4.258,0.126,8.526,0.046,12.767-0.376c8.166-0.812,16.484-2.835,23.959-6.254
		c7.196-3.291,14.283-6.895,20.26-12.173c2.576-2.274,4.985-4.411,7.58-6.751c3.091-2.787,5.861-5.967,8.738-8.971
		c0.251-0.259,0.692-0.629,0.947-0.969c0.246,0,1.198-1.316,1.415-1.554c0.584-0.64,1.22-1.351,1.764-1.946
		c1.112-1.16,2.184-2.412,3.207-3.641c1.866-2.236,3.482-4.311,5.438-6.256c0.281-0.258,0.217-0.715,0.613-0.952
		c1.373-1.233,2.494-2.977,3.672-4.423c1.327-1.628,2.559-3.24,3.768-4.847c0.35-0.464,0.862-0.801,1.184-1.267
		c0.541-0.74,1.014-1.568,1.611-2.257c0.324-0.423,0.844-0.853,1.248-1.281c0.355-0.438,0.592-0.933,0.969-1.265
		c1.826-2.371,3.736-4.947,5.746-7.018c0.52-0.74,0.984-1.252,1.605-1.924c0.586-1.195,1.96-2.023,2.543-3.189
		c-0.05,0.081,0.443-0.768,0.354-0.595c0.938-0.96,1.862-2.138,2.837-3.225c0.862-0.815,1.845-1.753,2.564-2.547
		c0.305-0.355,0.413-0.462,0.322-0.319c1.161-1.521,2.757-2.789,4.137-4.105c1.565-1.493,3.075-3.221,4.806-4.516
		c2.559-2.349,5.929-4.162,9.144-5.635c6.981-3.201,15.733-4.604,23.266-2.681c1.958,0.499,3.828,1.313,5.669,2.135
		c2.031,0.905,4.118,1.681,5.846,3.087c1.635,1.33,3.271,2.662,4.906,3.993c1.48,1.205,2.432,2.69,3.479,4.2
		c0.865,1.258,1.48,2.739,2.145,4.161c0.925,1.979,1.858,3.866,2.426,5.98c0.479,1.784,0.857,3.402,1.03,5.229
		c0.21,2.203,0.093,4.258-0.081,6.463c-0.143,1.818-0.049,3.865-0.637,5.598c-0.325,1.871-1.417,3.824-2.11,5.605
		c-1.172,3.018-3.281,5.756-5.481,8.134c-2.363,2.554-5.076,4.782-8.082,6.538c-1.382,0.807-2.946,1.766-4.508,2.156
		c-1.774,0.988-4.075,1.111-6.062,1.494c-2.095,0.405-4.007,0.68-6.143,0.678c-2.28-0.002-4.558-0.003-6.838-0.003
		c-4.384-0.003-8.769-0.004-13.151-0.005c-4.385,0-8.768,0-13.15,0.001c-2.105,0-4.209,0.001-6.313,0.003
		c-1.636,0.006-3.678,0.699-5.214,1.25c-3.093,1.105-5.781,3.064-7.732,5.711c-1.705,2.873-3.359,5.51-3.406,9.058
		c-0.053,3.958,0.301,7.948,2.449,11.382c1.702,2.719,4.15,4.887,7.126,6.108c1.519,0.624,3.229,1.348,4.825,1.714
		c2.051,0.471,4.516,0.141,6.615,0.15c4.374,0.018,8.748,0.009,13.122-0.002c8.29-0.02,16.698,0.412,24.959-0.266
		c1.915-0.028,3.909,0.117,5.786-0.277c2.229-0.469,4.46-0.936,6.688-1.404c3.525-0.741,7.012-1.537,10.187-3.088
		c0.665-0.498,2.028-0.705,2.87-1.111c1.193-0.574,2.357-1.104,3.502-1.779c2.439-1.084,4.821-2.743,7.008-4.178
		c2.087-1.598,4.535-3.242,6.414-5.079c2.621-2.376,5.395-5.194,7.686-8.024c1.428-1.762,3.17-3.662,4.119-5.682
		c1.017-1.236,1.901-2.711,2.566-4.16l0,0l0,0c0.36-0.545,0.693-1.078,0.943-1.597c3.524-6.05,5.526-12.953,6.529-19.835
		c0.516-3.534,0.961-7.064,1.324-10.617C283.728,174.328,283.031,170.501,282.75,166.88
		C282.352,165.058,282.988,169.951,282.75,166.88z"/>
</g>
</svg>
